<svg width="322" height="143" viewBox="0 0 322 143" fill="none" xmlns="http://www.w3.org/2000/svg">
<rect x="11.5" y="0.5" width="310" height="142" rx="19.5" fill="white" stroke="#FF2D87"/>
<rect x="108" y="83" width="194" height="40" rx="20" fill="#2967FF"/>
<path d="M135.846 109.064V107.56H136.662C136.929 107.56 137.131 107.501 137.27 107.384C137.409 107.256 137.542 107.059 137.67 106.792L138.006 106.056L133.382 97.64H135.366L138.822 104.216L141.75 97.64H143.654L139.046 107.64C138.79 108.163 138.507 108.531 138.198 108.744C137.899 108.957 137.489 109.064 136.966 109.064H135.846ZM147.348 109.128C146.495 109.128 145.775 108.973 145.188 108.664C144.612 108.344 144.17 107.907 143.86 107.352L145.284 106.712C145.466 107.021 145.722 107.267 146.052 107.448C146.383 107.619 146.783 107.704 147.252 107.704C147.818 107.704 148.255 107.587 148.564 107.352C148.874 107.117 149.028 106.808 149.028 106.424C149.028 106.072 148.9 105.789 148.644 105.576C148.388 105.352 148.026 105.235 147.556 105.224H146.692V104.104H147.588C147.908 104.104 148.164 104.003 148.356 103.8C148.559 103.587 148.66 103.32 148.66 103C148.66 102.68 148.538 102.424 148.292 102.232C148.058 102.029 147.7 101.928 147.22 101.928C146.804 101.928 146.458 102.008 146.18 102.168C145.914 102.317 145.7 102.541 145.54 102.84L144.212 102.136C144.49 101.624 144.89 101.224 145.412 100.936C145.946 100.648 146.575 100.504 147.3 100.504C148.143 100.504 148.842 100.701 149.396 101.096C149.951 101.491 150.228 102.051 150.228 102.776C150.228 103.16 150.138 103.523 149.956 103.864C149.775 104.195 149.492 104.44 149.108 104.6C149.62 104.76 150.004 105.021 150.26 105.384C150.527 105.747 150.66 106.179 150.66 106.68C150.66 107.192 150.516 107.635 150.228 108.008C149.951 108.371 149.562 108.648 149.06 108.84C148.559 109.032 147.988 109.128 147.348 109.128ZM152.283 109V100.632H154.043V103.96H157.931V100.632H159.691V109H157.931V105.48H154.043V109H152.283ZM161.206 106.552C161.206 106.019 161.355 105.555 161.654 105.16C161.952 104.755 162.368 104.445 162.902 104.232C163.446 104.008 164.07 103.896 164.774 103.896C165.147 103.896 165.526 103.928 165.91 103.992C166.304 104.045 166.651 104.125 166.95 104.232V103.704C166.95 103.117 166.774 102.659 166.422 102.328C166.07 101.997 165.563 101.832 164.902 101.832C164.443 101.832 164 101.912 163.574 102.072C163.147 102.232 162.704 102.467 162.246 102.776L161.654 101.592C162.208 101.229 162.763 100.957 163.318 100.776C163.883 100.584 164.475 100.488 165.094 100.488C166.214 100.488 167.094 100.787 167.734 101.384C168.384 101.971 168.71 102.808 168.71 103.896V107.016C168.71 107.219 168.742 107.363 168.806 107.448C168.88 107.533 169.003 107.581 169.174 107.592V109C169.014 109.032 168.87 109.053 168.742 109.064C168.614 109.075 168.507 109.08 168.422 109.08C168.038 109.08 167.75 108.989 167.558 108.808C167.376 108.616 167.27 108.403 167.238 108.168L167.19 107.688C166.827 108.157 166.363 108.52 165.798 108.776C165.232 109.032 164.662 109.16 164.086 109.16C163.531 109.16 163.035 109.048 162.598 108.824C162.16 108.589 161.819 108.275 161.574 107.88C161.328 107.485 161.206 107.043 161.206 106.552ZM166.534 107.064C166.811 106.787 166.95 106.525 166.95 106.28V105.32C166.32 105.085 165.68 104.968 165.03 104.968C164.39 104.968 163.867 105.101 163.462 105.368C163.067 105.624 162.87 105.971 162.87 106.408C162.87 106.771 163.014 107.107 163.302 107.416C163.6 107.715 164.027 107.864 164.582 107.864C164.955 107.864 165.318 107.789 165.67 107.64C166.022 107.491 166.31 107.299 166.534 107.064ZM172.735 109V102.184H169.967V100.632H177.279V102.184H174.495V109H172.735ZM178.595 109V100.632H180.355V103.384H182.355C183.347 103.384 184.099 103.635 184.611 104.136C185.134 104.637 185.395 105.299 185.395 106.12C185.395 106.952 185.144 107.64 184.643 108.184C184.152 108.728 183.427 109 182.467 109H178.595ZM180.355 107.64H182.195C182.718 107.64 183.096 107.496 183.331 107.208C183.566 106.909 183.683 106.557 183.683 106.152C183.683 105.757 183.571 105.416 183.347 105.128C183.123 104.84 182.734 104.696 182.179 104.696H180.355V107.64ZM190.783 109V100.632H197.983V109H196.223V102.184H192.543V109H190.783ZM203.871 109.16C202.996 109.16 202.233 108.963 201.583 108.568C200.943 108.163 200.447 107.635 200.095 106.984C199.743 106.323 199.567 105.603 199.567 104.824C199.567 104.045 199.743 103.331 200.095 102.68C200.457 102.019 200.959 101.491 201.599 101.096C202.249 100.691 203.007 100.488 203.871 100.488C204.735 100.488 205.487 100.691 206.127 101.096C206.777 101.491 207.279 102.019 207.631 102.68C207.993 103.331 208.175 104.045 208.175 104.824C208.175 105.603 207.999 106.323 207.647 106.984C207.295 107.635 206.793 108.163 206.143 108.568C205.503 108.963 204.745 109.16 203.871 109.16ZM201.375 104.84C201.375 105.373 201.487 105.853 201.711 106.28C201.935 106.707 202.233 107.043 202.607 107.288C202.98 107.533 203.401 107.656 203.871 107.656C204.329 107.656 204.745 107.533 205.119 107.288C205.503 107.032 205.807 106.691 206.031 106.264C206.255 105.837 206.367 105.357 206.367 104.824C206.367 104.291 206.255 103.811 206.031 103.384C205.807 102.957 205.503 102.621 205.119 102.376C204.745 102.12 204.329 101.992 203.871 101.992C203.412 101.992 202.991 102.12 202.607 102.376C202.233 102.621 201.935 102.963 201.711 103.4C201.487 103.827 201.375 104.307 201.375 104.84ZM208.936 111V107.448H209.128C209.426 107.448 209.693 107.331 209.928 107.096C210.173 106.861 210.37 106.435 210.52 105.816C210.68 105.197 210.776 104.312 210.808 103.16L210.904 100.632H216.872V107.448H218.024V111H216.472V109H210.472V111H208.936ZM211.448 107.448H215.112V102.152H212.456L212.408 103.32C212.354 104.547 212.248 105.48 212.088 106.12C211.938 106.76 211.725 107.203 211.448 107.448ZM224.269 109.16C223.597 109.16 223.005 109 222.493 108.68C221.981 108.36 221.576 107.944 221.277 107.432V112.408H219.517V100.632H221.069V102.136C221.389 101.635 221.805 101.235 222.317 100.936C222.829 100.637 223.4 100.488 224.029 100.488C224.797 100.488 225.474 100.691 226.061 101.096C226.658 101.491 227.128 102.019 227.469 102.68C227.81 103.331 227.981 104.04 227.981 104.808C227.981 105.619 227.821 106.355 227.501 107.016C227.181 107.667 226.744 108.189 226.189 108.584C225.634 108.968 224.994 109.16 224.269 109.16ZM223.693 107.656C224.194 107.656 224.626 107.523 224.989 107.256C225.362 106.979 225.65 106.627 225.853 106.2C226.066 105.763 226.173 105.299 226.173 104.808C226.173 104.296 226.056 103.827 225.821 103.4C225.597 102.973 225.288 102.632 224.893 102.376C224.509 102.12 224.066 101.992 223.565 101.992C223.266 101.992 222.952 102.067 222.621 102.216C222.301 102.365 222.018 102.563 221.773 102.808C221.528 103.053 221.362 103.331 221.277 103.64V105.832C221.49 106.344 221.816 106.776 222.253 107.128C222.701 107.48 223.181 107.656 223.693 107.656ZM233.324 109.16C232.449 109.16 231.686 108.963 231.036 108.568C230.396 108.163 229.9 107.635 229.548 106.984C229.196 106.323 229.02 105.603 229.02 104.824C229.02 104.045 229.196 103.331 229.548 102.68C229.91 102.019 230.412 101.491 231.052 101.096C231.702 100.691 232.46 100.488 233.324 100.488C234.188 100.488 234.94 100.691 235.58 101.096C236.23 101.491 236.732 102.019 237.084 102.68C237.446 103.331 237.628 104.045 237.628 104.824C237.628 105.603 237.452 106.323 237.1 106.984C236.748 107.635 236.246 108.163 235.596 108.568C234.956 108.963 234.198 109.16 233.324 109.16ZM230.828 104.84C230.828 105.373 230.94 105.853 231.164 106.28C231.388 106.707 231.686 107.043 232.06 107.288C232.433 107.533 232.854 107.656 233.324 107.656C233.782 107.656 234.198 107.533 234.572 107.288C234.956 107.032 235.26 106.691 235.484 106.264C235.708 105.837 235.82 105.357 235.82 104.824C235.82 104.291 235.708 103.811 235.484 103.384C235.26 102.957 234.956 102.621 234.572 102.376C234.198 102.12 233.782 101.992 233.324 101.992C232.865 101.992 232.444 102.12 232.06 102.376C231.686 102.621 231.388 102.963 231.164 103.4C230.94 103.827 230.828 104.307 230.828 104.84ZM243.237 109.16C241.839 109.16 240.778 108.739 240.053 107.896C239.327 107.053 238.965 105.848 238.965 104.28C238.965 103.256 239.05 102.392 239.221 101.688C239.402 100.973 239.663 100.387 240.005 99.928C240.357 99.4587 240.789 99.08 241.301 98.792C241.823 98.504 242.426 98.2693 243.109 98.088L246.677 97.096L246.741 98.568L243.237 99.56C242.405 99.816 241.754 100.2 241.285 100.712C240.826 101.224 240.549 101.981 240.453 102.984C240.751 102.44 241.178 102.013 241.733 101.704C242.287 101.395 242.943 101.24 243.701 101.24C244.479 101.24 245.151 101.405 245.717 101.736C246.282 102.056 246.719 102.504 247.029 103.08C247.338 103.656 247.493 104.317 247.493 105.064C247.493 105.875 247.327 106.589 246.997 107.208C246.677 107.816 246.197 108.296 245.557 108.648C244.927 108.989 244.154 109.16 243.237 109.16ZM243.237 107.656C244.005 107.656 244.607 107.427 245.045 106.968C245.482 106.509 245.701 105.901 245.701 105.144C245.701 104.419 245.482 103.827 245.045 103.368C244.618 102.899 244.015 102.664 243.237 102.664C242.533 102.664 241.946 102.883 241.477 103.32C241.018 103.757 240.789 104.365 240.789 105.144C240.789 105.88 241.002 106.483 241.429 106.952C241.855 107.421 242.458 107.656 243.237 107.656ZM249.079 109V100.632H250.839V103.96H254.727V100.632H256.487V109H254.727V105.48H250.839V109H249.079ZM262.403 109.16C261.539 109.16 260.781 108.963 260.131 108.568C259.48 108.173 258.973 107.651 258.611 107C258.248 106.339 258.067 105.619 258.067 104.84C258.067 104.051 258.248 103.325 258.611 102.664C258.973 102.003 259.48 101.475 260.131 101.08C260.781 100.685 261.544 100.488 262.419 100.488C263.293 100.488 264.051 100.691 264.691 101.096C265.331 101.491 265.821 102.013 266.163 102.664C266.515 103.315 266.691 104.013 266.691 104.76C266.691 105.027 266.675 105.24 266.643 105.4H259.939C259.971 105.891 260.104 106.323 260.339 106.696C260.584 107.059 260.888 107.347 261.251 107.56C261.624 107.763 262.029 107.864 262.467 107.864C262.936 107.864 263.379 107.747 263.795 107.512C264.211 107.277 264.499 106.968 264.659 106.584L266.163 107.016C265.875 107.645 265.395 108.163 264.723 108.568C264.061 108.963 263.288 109.16 262.403 109.16ZM259.891 104.232H264.947C264.904 103.752 264.765 103.331 264.531 102.968C264.296 102.595 263.992 102.307 263.619 102.104C263.256 101.891 262.851 101.784 262.403 101.784C261.965 101.784 261.56 101.891 261.187 102.104C260.824 102.307 260.525 102.595 260.291 102.968C260.056 103.331 259.923 103.752 259.891 104.232ZM271.918 109.16C271.054 109.16 270.297 108.963 269.646 108.568C268.996 108.173 268.489 107.651 268.126 107C267.764 106.339 267.582 105.619 267.582 104.84C267.582 104.051 267.764 103.325 268.126 102.664C268.489 102.003 268.996 101.475 269.646 101.08C270.297 100.685 271.06 100.488 271.934 100.488C272.809 100.488 273.566 100.691 274.206 101.096C274.846 101.491 275.337 102.013 275.678 102.664C276.03 103.315 276.206 104.013 276.206 104.76C276.206 105.027 276.19 105.24 276.158 105.4H269.454C269.486 105.891 269.62 106.323 269.854 106.696C270.1 107.059 270.404 107.347 270.766 107.56C271.14 107.763 271.545 107.864 271.982 107.864C272.452 107.864 272.894 107.747 273.31 107.512C273.726 107.277 274.014 106.968 274.174 106.584L275.678 107.016C275.39 107.645 274.91 108.163 274.238 108.568C273.577 108.963 272.804 109.16 271.918 109.16ZM269.406 104.232H274.462C274.42 103.752 274.281 103.331 274.046 102.968C273.812 102.595 273.508 102.307 273.134 102.104C272.772 101.891 272.366 101.784 271.918 101.784C271.481 101.784 271.076 101.891 270.702 102.104C270.34 102.307 270.041 102.595 269.806 102.968C269.572 103.331 269.438 103.752 269.406 104.232Z" fill="white"/>
<path d="M109.62 41V26.8H120.84V41H118.58V28.78H111.86V41H109.62ZM128.473 41.2C127.38 41.2 126.426 40.9533 125.613 40.46C124.813 39.9533 124.193 39.2933 123.753 38.48C123.313 37.6533 123.093 36.7533 123.093 35.78C123.093 34.8067 123.313 33.9133 123.753 33.1C124.206 32.2733 124.833 31.6133 125.633 31.12C126.446 30.6133 127.393 30.36 128.473 30.36C129.553 30.36 130.493 30.6133 131.293 31.12C132.106 31.6133 132.733 32.2733 133.173 33.1C133.626 33.9133 133.853 34.8067 133.853 35.78C133.853 36.7533 133.633 37.6533 133.193 38.48C132.753 39.2933 132.126 39.9533 131.313 40.46C130.513 40.9533 129.566 41.2 128.473 41.2ZM125.353 35.8C125.353 36.4667 125.493 37.0667 125.773 37.6C126.053 38.1333 126.426 38.5533 126.893 38.86C127.36 39.1667 127.886 39.32 128.473 39.32C129.046 39.32 129.566 39.1667 130.033 38.86C130.513 38.54 130.893 38.1133 131.173 37.58C131.453 37.0467 131.593 36.4467 131.593 35.78C131.593 35.1133 131.453 34.5133 131.173 33.98C130.893 33.4467 130.513 33.0267 130.033 32.72C129.566 32.4 129.046 32.24 128.473 32.24C127.9 32.24 127.373 32.4 126.893 32.72C126.426 33.0267 126.053 33.4533 125.773 34C125.493 34.5333 125.353 35.1333 125.353 35.8ZM134.964 41.1V39.14C135.404 39.1267 135.784 38.9733 136.104 38.68C136.438 38.3867 136.704 37.8533 136.904 37.08C137.104 36.2933 137.231 35.1667 137.284 33.7L137.424 30.54H144.884V41H142.684V32.48H139.364L139.324 33.9C139.258 35.7667 139.051 37.22 138.704 38.26C138.371 39.3 137.898 40.0333 137.284 40.46C136.671 40.8867 135.898 41.1 134.964 41.1ZM148.924 45.44C148.67 45.44 148.41 45.4067 148.144 45.34C147.89 45.2733 147.617 45.1733 147.324 45.04L147.884 43.4C148.19 43.56 148.477 43.64 148.744 43.64C149.424 43.64 149.97 43.0933 150.384 42L150.784 40.92L146.364 30.54H148.664L151.864 38.76L154.704 30.54H156.824L152.224 42.6C151.877 43.5333 151.41 44.24 150.824 44.72C150.25 45.2 149.617 45.44 148.924 45.44ZM164.321 41V37.02C163.548 37.38 162.654 37.56 161.641 37.56C160.521 37.56 159.654 37.2667 159.041 36.68C158.441 36.08 158.141 35.1933 158.141 34.02V30.54H160.341V33.74C160.341 34.4733 160.494 35.0133 160.801 35.36C161.108 35.6933 161.601 35.86 162.281 35.86C162.654 35.86 163.021 35.82 163.381 35.74C163.754 35.66 164.068 35.5533 164.321 35.42V30.54H166.541V41H164.321ZM168.443 37.94C168.443 37.2733 168.629 36.6933 169.003 36.2C169.376 35.6933 169.896 35.3067 170.563 35.04C171.243 34.76 172.023 34.62 172.903 34.62C173.369 34.62 173.843 34.66 174.323 34.74C174.816 34.8067 175.249 34.9067 175.623 35.04V34.38C175.623 33.6467 175.403 33.0733 174.963 32.66C174.523 32.2467 173.889 32.04 173.063 32.04C172.489 32.04 171.936 32.14 171.403 32.34C170.869 32.54 170.316 32.8333 169.743 33.22L169.003 31.74C169.696 31.2867 170.389 30.9467 171.083 30.72C171.789 30.48 172.529 30.36 173.303 30.36C174.703 30.36 175.803 30.7333 176.603 31.48C177.416 32.2133 177.823 33.26 177.823 34.62V38.52C177.823 38.7733 177.863 38.9533 177.943 39.06C178.036 39.1667 178.189 39.2267 178.403 39.24V41C178.203 41.04 178.023 41.0667 177.863 41.08C177.703 41.0933 177.569 41.1 177.463 41.1C176.983 41.1 176.623 40.9867 176.383 40.76C176.156 40.52 176.023 40.2533 175.983 39.96L175.923 39.36C175.469 39.9467 174.889 40.4 174.183 40.72C173.476 41.04 172.763 41.2 172.043 41.2C171.349 41.2 170.729 41.06 170.183 40.78C169.636 40.4867 169.209 40.0933 168.903 39.6C168.596 39.1067 168.443 38.5533 168.443 37.94ZM175.103 38.58C175.449 38.2333 175.623 37.9067 175.623 37.6V36.4C174.836 36.1067 174.036 35.96 173.223 35.96C172.423 35.96 171.769 36.1267 171.263 36.46C170.769 36.78 170.523 37.2133 170.523 37.76C170.523 38.2133 170.703 38.6333 171.063 39.02C171.436 39.3933 171.969 39.58 172.663 39.58C173.129 39.58 173.583 39.4867 174.023 39.3C174.463 39.1133 174.823 38.8733 175.103 38.58ZM180.492 41V30.56H182.692V38.06L187.992 30.54H189.992V41H187.792V33.66L182.552 41H180.492ZM185.252 29.46C184.265 29.46 183.499 29.2133 182.952 28.72C182.419 28.2267 182.152 27.6067 182.152 26.86H183.592C183.592 27.2467 183.719 27.5667 183.972 27.82C184.239 28.0733 184.665 28.2 185.252 28.2C185.825 28.2 186.232 28.08 186.472 27.84C186.712 27.6 186.865 27.2733 186.932 26.86H188.372C188.372 27.6067 188.099 28.2267 187.552 28.72C187.019 29.2133 186.252 29.46 185.252 29.46ZM200.042 41V32.48H196.582V30.54H205.722V32.48H202.242V41H200.042ZM212.067 41.2C210.974 41.2 210.02 40.9533 209.207 40.46C208.407 39.9533 207.787 39.2933 207.347 38.48C206.907 37.6533 206.687 36.7533 206.687 35.78C206.687 34.8067 206.907 33.9133 207.347 33.1C207.8 32.2733 208.427 31.6133 209.227 31.12C210.04 30.6133 210.987 30.36 212.067 30.36C213.147 30.36 214.087 30.6133 214.887 31.12C215.7 31.6133 216.327 32.2733 216.767 33.1C217.22 33.9133 217.447 34.8067 217.447 35.78C217.447 36.7533 217.227 37.6533 216.787 38.48C216.347 39.2933 215.72 39.9533 214.907 40.46C214.107 40.9533 213.16 41.2 212.067 41.2ZM208.947 35.8C208.947 36.4667 209.087 37.0667 209.367 37.6C209.647 38.1333 210.02 38.5533 210.487 38.86C210.954 39.1667 211.48 39.32 212.067 39.32C212.64 39.32 213.16 39.1667 213.627 38.86C214.107 38.54 214.487 38.1133 214.767 37.58C215.047 37.0467 215.187 36.4467 215.187 35.78C215.187 35.1133 215.047 34.5133 214.767 33.98C214.487 33.4467 214.107 33.0267 213.627 32.72C213.16 32.4 212.64 32.24 212.067 32.24C211.494 32.24 210.967 32.4 210.487 32.72C210.02 33.0267 209.647 33.4533 209.367 34C209.087 34.5333 208.947 35.1333 208.947 35.8ZM219.398 41V30.54H224.998C225.665 30.54 226.211 30.6667 226.638 30.92C227.078 31.16 227.405 31.4733 227.618 31.86C227.831 32.2467 227.938 32.66 227.938 33.1C227.938 33.6733 227.798 34.18 227.518 34.62C227.251 35.06 226.865 35.3933 226.358 35.62C226.958 35.7933 227.445 36.1 227.818 36.54C228.205 36.98 228.398 37.5333 228.398 38.2C228.398 39.12 228.071 39.82 227.418 40.3C226.765 40.7667 225.898 41 224.818 41H219.398ZM221.478 35.02H224.438C224.851 35.02 225.191 34.8667 225.458 34.56C225.725 34.2533 225.858 33.8933 225.858 33.48C225.858 33.0933 225.731 32.76 225.478 32.48C225.225 32.2 224.891 32.06 224.478 32.06H221.478V35.02ZM221.478 39.48H224.758C225.185 39.48 225.545 39.3333 225.838 39.04C226.131 38.7333 226.278 38.3733 226.278 37.96C226.278 37.5333 226.138 37.1733 225.858 36.88C225.578 36.5867 225.225 36.44 224.798 36.44H221.478V39.48ZM229.732 37.94C229.732 37.2733 229.919 36.6933 230.292 36.2C230.665 35.6933 231.185 35.3067 231.852 35.04C232.532 34.76 233.312 34.62 234.192 34.62C234.659 34.62 235.132 34.66 235.612 34.74C236.105 34.8067 236.539 34.9067 236.912 35.04V34.38C236.912 33.6467 236.692 33.0733 236.252 32.66C235.812 32.2467 235.179 32.04 234.352 32.04C233.779 32.04 233.225 32.14 232.692 32.34C232.159 32.54 231.605 32.8333 231.032 33.22L230.292 31.74C230.985 31.2867 231.679 30.9467 232.372 30.72C233.079 30.48 233.819 30.36 234.592 30.36C235.992 30.36 237.092 30.7333 237.892 31.48C238.705 32.2133 239.112 33.26 239.112 34.62V38.52C239.112 38.7733 239.152 38.9533 239.232 39.06C239.325 39.1667 239.479 39.2267 239.692 39.24V41C239.492 41.04 239.312 41.0667 239.152 41.08C238.992 41.0933 238.859 41.1 238.752 41.1C238.272 41.1 237.912 40.9867 237.672 40.76C237.445 40.52 237.312 40.2533 237.272 39.96L237.212 39.36C236.759 39.9467 236.179 40.4 235.472 40.72C234.765 41.04 234.052 41.2 233.332 41.2C232.639 41.2 232.019 41.06 231.472 40.78C230.925 40.4867 230.499 40.0933 230.192 39.6C229.885 39.1067 229.732 38.5533 229.732 37.94ZM236.392 38.58C236.739 38.2333 236.912 37.9067 236.912 37.6V36.4C236.125 36.1067 235.325 35.96 234.512 35.96C233.712 35.96 233.059 36.1267 232.552 36.46C232.059 36.78 231.812 37.2133 231.812 37.76C231.812 38.2133 231.992 38.6333 232.352 39.02C232.725 39.3933 233.259 39.58 233.952 39.58C234.419 39.58 234.872 39.4867 235.312 39.3C235.752 39.1133 236.112 38.8733 236.392 38.58ZM247.721 41.2C246.881 41.2 246.141 41 245.501 40.6C244.861 40.2 244.354 39.68 243.981 39.04V45.26H241.781V30.54H243.721V32.42C244.121 31.7933 244.641 31.2933 245.281 30.92C245.921 30.5467 246.634 30.36 247.421 30.36C248.381 30.36 249.228 30.6133 249.961 31.12C250.708 31.6133 251.294 32.2733 251.721 33.1C252.148 33.9133 252.361 34.8 252.361 35.76C252.361 36.7733 252.161 37.6933 251.761 38.52C251.361 39.3333 250.814 39.9867 250.121 40.48C249.428 40.96 248.628 41.2 247.721 41.2ZM247.001 39.32C247.628 39.32 248.168 39.1533 248.621 38.82C249.088 38.4733 249.448 38.0333 249.701 37.5C249.968 36.9533 250.101 36.3733 250.101 35.76C250.101 35.12 249.954 34.5333 249.661 34C249.381 33.4667 248.994 33.04 248.501 32.72C248.021 32.4 247.468 32.24 246.841 32.24C246.468 32.24 246.074 32.3333 245.661 32.52C245.261 32.7067 244.908 32.9533 244.601 33.26C244.294 33.5667 244.088 33.9133 243.981 34.3V37.04C244.248 37.68 244.654 38.22 245.201 38.66C245.761 39.1 246.361 39.32 247.001 39.32ZM254.34 41V30.54H256.54V33.98H258.52C259.76 33.98 260.706 34.2933 261.36 34.92C262.013 35.5467 262.34 36.3733 262.34 37.4C262.34 38.44 262.026 39.3 261.4 39.98C260.773 40.66 259.866 41 258.68 41H254.34ZM264.06 41V30.56H266.26V41H264.06ZM256.54 39.3H258.34C258.98 39.3 259.446 39.12 259.74 38.76C260.033 38.3867 260.18 37.9467 260.18 37.44C260.18 36.9467 260.04 36.52 259.76 36.16C259.493 35.8 259.013 35.62 258.32 35.62H256.54V39.3ZM109.62 67V52.8H119.6V54.76H111.86V58.74H116.02C117.593 58.74 118.773 59.1133 119.56 59.86C120.347 60.5933 120.74 61.5667 120.74 62.78C120.74 63.5933 120.567 64.32 120.22 64.96C119.887 65.5867 119.38 66.0867 118.7 66.46C118.02 66.82 117.173 67 116.16 67H109.62ZM111.86 65.04H115.86C116.473 65.04 116.967 64.9267 117.34 64.7C117.727 64.4733 118 64.1867 118.16 63.84C118.333 63.48 118.42 63.1 118.42 62.7C118.42 62.3267 118.347 61.9733 118.2 61.64C118.053 61.3067 117.787 61.04 117.4 60.84C117.027 60.6267 116.5 60.52 115.82 60.52H111.86V65.04ZM132.582 65.02V67H122.842V52.8H132.402V54.78H125.082V58.82H131.422V60.68H125.082V65.02H132.582ZM133.739 59.8C133.739 58.9333 133.892 58.08 134.199 57.24C134.506 56.4 134.952 55.64 135.539 54.96C136.139 54.28 136.859 53.74 137.699 53.34C138.552 52.9267 139.526 52.72 140.619 52.72C141.899 52.72 143.006 53.0067 143.939 53.58C144.872 54.1533 145.566 54.9 146.019 55.82L144.259 57C143.992 56.4267 143.652 55.98 143.239 55.66C142.839 55.3267 142.399 55.0933 141.919 54.96C141.452 54.8133 140.992 54.74 140.539 54.74C139.792 54.74 139.139 54.8933 138.579 55.2C138.019 55.4933 137.546 55.8867 137.159 56.38C136.786 56.8733 136.499 57.4267 136.299 58.04C136.112 58.6533 136.019 59.2667 136.019 59.88C136.019 60.8 136.212 61.66 136.599 62.46C136.999 63.2467 137.539 63.8867 138.219 64.38C138.912 64.86 139.706 65.1 140.599 65.1C141.052 65.1 141.526 65.02 142.019 64.86C142.512 64.7 142.966 64.4533 143.379 64.12C143.792 63.7733 144.126 63.32 144.379 62.76L146.239 63.82C145.946 64.5267 145.486 65.1267 144.859 65.62C144.246 66.1133 143.552 66.4867 142.779 66.74C142.019 66.9933 141.266 67.12 140.519 67.12C139.519 67.12 138.606 66.9133 137.779 66.5C136.952 66.0733 136.239 65.5133 135.639 64.82C135.039 64.1133 134.572 63.3267 134.239 62.46C133.906 61.58 133.739 60.6933 133.739 59.8ZM148.331 67V52.8H159.551V67H157.291V54.78H150.571V67H148.331ZM171.984 67V54.78H167.244L167.164 57.42C167.097 59.3267 166.944 60.9067 166.704 62.16C166.477 63.4 166.151 64.38 165.724 65.1C165.297 65.82 164.764 66.3267 164.124 66.62C163.484 66.9133 162.717 67.06 161.824 67.06V65.1C162.317 65.1 162.751 64.9867 163.124 64.76C163.497 64.52 163.811 64.1 164.064 63.5C164.331 62.9 164.537 62.06 164.684 60.98C164.844 59.8867 164.951 58.4933 165.004 56.8L165.144 52.8H174.244V67H171.984ZM181.552 52.8H183.672L189.192 67H186.832L185.332 63.14H179.852L178.372 67H175.992L181.552 52.8ZM184.892 61.48L182.612 55.26L180.252 61.48H184.892ZM200.04 54.78H195.32V67H193.06V54.78H188.32V52.8H200.04V54.78ZM213.604 52.8V67H211.344V60.74H204.184V67H201.944V52.8H204.184V58.74H211.344V52.8H213.604ZM222.707 67.1C221.694 67.1 220.767 66.9 219.927 66.5C219.1 66.1 218.387 65.56 217.787 64.88C217.187 64.1867 216.72 63.4133 216.387 62.56C216.067 61.6933 215.907 60.8067 215.907 59.9C215.907 58.9533 216.08 58.0533 216.427 57.2C216.774 56.3333 217.254 55.5667 217.867 54.9C218.48 54.22 219.2 53.6867 220.027 53.3C220.867 52.9 221.774 52.7 222.747 52.7C223.76 52.7 224.68 52.9067 225.507 53.32C226.347 53.7333 227.06 54.2867 227.647 54.98C228.247 55.6733 228.707 56.4467 229.027 57.3C229.36 58.1533 229.527 59.0267 229.527 59.92C229.527 60.8667 229.354 61.7733 229.007 62.64C228.674 63.4933 228.2 64.26 227.587 64.94C226.974 65.6067 226.247 66.1333 225.407 66.52C224.58 66.9067 223.68 67.1 222.707 67.1ZM218.187 59.9C218.187 60.7933 218.374 61.64 218.747 62.44C219.12 63.2267 219.64 63.8667 220.307 64.36C220.987 64.84 221.794 65.08 222.727 65.08C223.434 65.08 224.067 64.9333 224.627 64.64C225.187 64.3467 225.66 63.9533 226.047 63.46C226.434 62.9533 226.727 62.3933 226.927 61.78C227.127 61.1667 227.227 60.54 227.227 59.9C227.227 59.0067 227.04 58.1667 226.667 57.38C226.307 56.5933 225.787 55.96 225.107 55.48C224.427 54.9867 223.634 54.74 222.727 54.74C222.007 54.74 221.367 54.8867 220.807 55.18C220.247 55.4733 219.774 55.8667 219.387 56.36C219 56.8533 218.7 57.4067 218.487 58.02C218.287 58.6333 218.187 59.26 218.187 59.9ZM231.986 61.94V52.66H234.186V61.94H231.986ZM231.986 67V64.26H234.186V67H231.986Z" fill="#2967FF"/>
<g clip-path="url(#clip0)">
<path d="M90.9999 114H37.9092L45.1892 54.4449H83.6311L90.9999 114Z" fill="#FF2D87"/>
<path d="M87.2712 114H34.1804L41.4604 54.4449H79.9912L87.2712 114Z" fill="#FF7CB4"/>
<path d="M48.918 80.3773C48.918 77.1581 51.0487 75.2803 53.8009 75.2803C56.5531 75.2803 58.595 77.1581 58.595 80.4668C58.595 83.7754 56.4643 85.5638 53.7121 85.5638C50.9599 85.5638 48.918 83.6859 48.918 80.3773ZM64.5433 75.7274L68.9824 75.8168L56.2868 93.9695L51.8477 93.8801L64.5433 75.7274ZM54.955 80.4668C54.955 78.6783 54.4224 78.1418 53.8009 78.1418C53.2682 78.1418 52.6468 78.6783 52.6468 80.3773C52.6468 82.1658 53.1794 82.7023 53.8009 82.7023C54.3336 82.7917 54.955 82.2552 54.955 80.4668ZM62.235 89.2301C62.235 86.0109 64.3658 84.1331 67.118 84.1331C69.8702 84.1331 71.9121 86.0109 71.9121 89.3195C71.9121 92.6281 69.7814 94.4166 67.0292 94.4166C64.277 94.4166 62.1463 92.4493 62.235 89.2301ZM68.1833 89.2301C68.1833 87.4417 67.6507 86.9051 67.0292 86.9051C66.4965 86.9051 65.875 87.4417 65.875 89.1407C65.875 90.9291 66.4077 91.4657 67.0292 91.4657C67.5619 91.5551 68.1833 91.0186 68.1833 89.2301Z" fill="#FF2D87"/>
<path d="M54.0673 57.3959C54.0673 58.3795 53.2683 59.1843 52.2917 59.1843C51.3151 59.1843 50.5161 58.3795 50.5161 57.3959C50.5161 56.4122 51.3151 55.6074 52.2917 55.6074C53.2683 55.6074 54.0673 56.4122 54.0673 57.3959Z" fill="#2967FF"/>
<path d="M72.6225 57.3959C72.6225 58.3795 71.8235 59.1843 70.8469 59.1843C69.8703 59.1843 69.0713 58.3795 69.0713 57.3959C69.0713 56.4122 69.8703 55.6074 70.8469 55.6074C71.8235 55.6074 72.6225 56.4122 72.6225 57.3959Z" fill="#2967FF"/>
<path d="M52.2918 57.217C51.8479 57.217 51.4928 56.8593 51.5816 56.4122C51.6703 54.5344 52.0255 49.7056 53.0021 44.7874C54.7777 36.2923 57.7074 32 61.7913 32C65.8752 32 68.7162 36.2923 70.3143 44.8768C71.2021 49.7056 71.4684 54.6238 71.5572 56.5016C71.5572 56.9487 71.2021 57.3064 70.8469 57.3064C70.403 57.3064 70.1367 56.9487 70.0479 56.5911C69.8704 49.5267 68.1835 33.6096 61.7913 33.6096C55.3991 33.6096 53.446 49.5267 53.0908 56.5911C53.0908 56.9487 52.7357 57.217 52.2918 57.217Z" fill="#2D2D2F"/>
<path d="M49.4507 114H2.7522L9.14439 61.6881H43.0585L49.4507 114Z" fill="white"/>
<path fill-rule="evenodd" clip-rule="evenodd" d="M49.4507 114L43.0585 61.6881H9.14439L2.7522 114H49.4507ZM48.447 113.106L42.2733 62.5823H9.92963L3.75597 113.106H48.447Z" fill="#2967FF"/>
<path d="M46.6985 114H0L6.39219 61.6881H40.3063L46.6985 114Z" fill="white"/>
<path fill-rule="evenodd" clip-rule="evenodd" d="M46.6985 114L40.3063 61.6881H6.39219L0 114H46.6985ZM45.6948 113.106L39.5211 62.5823H7.17743L1.00377 113.106H45.6948Z" fill="#2967FF"/>
<path d="M15.8917 65.8909C16.7743 65.8909 17.4898 65.1703 17.4898 64.2813C17.4898 63.3924 16.7743 62.6718 15.8917 62.6718C15.0092 62.6718 14.2937 63.3924 14.2937 64.2813C14.2937 65.1703 15.0092 65.8909 15.8917 65.8909Z" fill="white"/>
<path d="M33.8252 64.2813C33.8252 65.1756 33.115 65.8909 32.2272 65.8909C31.3394 65.8909 30.6292 65.1756 30.6292 64.2813C30.6292 63.3871 31.3394 62.6718 32.2272 62.6718C33.115 62.6718 33.8252 63.3871 33.8252 64.2813Z" fill="white"/>
<path d="M15.9806 64.1026C15.6255 64.1026 15.3591 63.7449 15.3591 63.3872C15.4479 61.7776 15.7143 57.4853 16.6021 53.1931C18.1113 45.6816 20.7747 41.9259 24.326 41.9259C27.8772 41.9259 30.4518 45.7711 31.8723 53.1931C32.6713 57.4853 32.8489 61.7776 32.9377 63.3872C32.9377 63.7449 32.6713 64.1026 32.3162 64.1026C31.9611 64.1026 31.6947 63.8343 31.606 63.4766C31.4284 57.3065 29.9191 43.2672 24.4147 43.2672C18.8216 43.2672 17.046 57.3065 16.7796 63.4766C16.6021 63.8343 16.3357 64.1026 15.9806 64.1026Z" fill="#2D2D2F"/>
<path d="M11.5415 92.807V85.6532H16.5282V87.3661H13.5382V88.555H15.9753V90.147H13.5382V92.807H11.5415Z" fill="#2967FF"/>
<path d="M17.3113 92.807V85.6532H20.6495C21.0045 85.6532 21.3321 85.7271 21.6325 85.8749C21.9329 86.0159 22.1888 86.204 22.4005 86.4391C22.6189 86.6675 22.7896 86.9328 22.9124 87.2351C23.0353 87.5306 23.0968 87.8296 23.0968 88.1318C23.0968 88.5483 23.0046 88.9379 22.8203 89.3006C22.636 89.6566 22.38 89.9488 22.0523 90.1772L23.5883 92.807H21.3355L20.0556 90.6105H19.3081V92.807H17.3113ZM19.3081 88.8976H20.5676C20.6904 88.8976 20.8031 88.8304 20.9055 88.6961C21.0147 88.5617 21.0693 88.3736 21.0693 88.1318C21.0693 87.8833 21.0079 87.6952 20.885 87.5676C20.7621 87.4332 20.6392 87.3661 20.5164 87.3661H19.3081V88.8976Z" fill="#2967FF"/>
<path d="M29.4024 91.0941V92.807H24.2211V85.6532H29.3103V87.3661H26.2179V88.3736H28.8597V89.9656H26.2179V91.0941H29.4024Z" fill="#2967FF"/>
<path d="M35.5122 91.0941V92.807H30.3309V85.6532H35.4201V87.3661H32.3277V88.3736H34.9695V89.9656H32.3277V91.0941H35.5122Z" fill="#2967FF"/>
</g>
<defs>
<clipPath id="clip0">
<rect width="91" height="82" fill="white" transform="translate(0 32)"/>
</clipPath>
</defs>
</svg>
